<?xml version="1.0" encoding="utf-8"?>
<!-- Generator: Adobe Illustrator 26.0.1, SVG Export Plug-In . SVG Version: 6.00 Build 0)  -->
<svg version="1.1" id="Layer_1" xmlns="http://www.w3.org/2000/svg" xmlns:xlink="http://www.w3.org/1999/xlink" x="0px" y="0px"
	 viewBox="0 0 384 512" style="enable-background:new 0 0 384 512;" xml:space="preserve">
<style type="text/css">
	.st0{fill:#0A4737;}
</style>
<path class="st0" d="M382.8,494l-67.5-142.8c-1.3-2.8-3.6-5-6.5-6.2l-33.6-15l58.2-97.5c0.1-0.2,0.3-0.5,0.4-0.7
	c31.6-61.9,19.5-137.1-30-185.9c-62.7-61.8-163.5-61-225.3,1.6C30.4,96.4,19,170.6,50.2,231.8c0.1,0.2,0.3,0.5,0.4,0.7l58.2,97.5
	L75,345c-2.8,1.2-5,3.4-6.3,6.1L1.2,494c-3,6.3-0.3,13.8,6,16.8c3.3,1.6,7.2,1.6,10.6,0.1l84.6-37.6l84.6,37.6c3.3,1.5,7,1.5,10.3,0
	l84.6-37.6l84.6,37.6c6.4,2.8,13.8,0,16.7-6.4C384.5,501.2,384.4,497.3,382.8,494z M72.5,219.9c-9.7-19-14.7-40.1-14.5-61.5
	C58.5,86,117.7,26.3,190.1,25.3c74-1,134.9,58.2,135.9,132.2c0.3,21.7-4.7,43.1-14.5,62.4L202.9,402c-3.6,6-11.3,8-17.3,4.4
	c-1.8-1.1-3.3-2.6-4.4-4.4L72.5,219.9z M286.9,447.9c-3.3-1.5-7-1.5-10.3,0L192,485.5l-84.6-37.6c-3.3-1.5-7-1.5-10.3,0L38.6,474
	l50.9-107.8l32.3-14.4l37.7,63.1c10.7,18,34,23.8,52,13.1c5.4-3.2,9.9-7.7,13.1-13.1l37.7-63.1l32.3,14.4L345.4,474L286.9,447.9z"/>
<path class="st0" d="M192,101.6c-31.8,0-57.7,25.8-57.7,57.7s25.8,57.7,57.7,57.7s57.7-25.8,57.7-57.7
	C249.7,127.4,223.9,101.6,192,101.6z M192,191.6c-17.9,0-32.4-14.5-32.4-32.4s14.5-32.4,32.4-32.4s32.4,14.5,32.4,32.4
	C224.4,177.1,209.9,191.6,192,191.6L192,191.6z"/>
</svg>
