<?xml version="1.0" encoding="utf-8"?>
<!-- Generator: Adobe Illustrator 26.0.1, SVG Export Plug-In . SVG Version: 6.00 Build 0)  -->
<svg version="1.1" id="Capa_1" xmlns="http://www.w3.org/2000/svg" xmlns:xlink="http://www.w3.org/1999/xlink" x="0px" y="0px"
	 viewBox="0 0 512 511.9" style="enable-background:new 0 0 512 511.9;" xml:space="preserve">
<style type="text/css">
	.st0{fill:#0A4737;}
</style>
<path class="st0" d="M437,74.9C337.1-25,175-25,75.1,75C27.6,122.4,0.7,186.6,0.2,253.7c-0.2,1.4-0.2,2.8,0,4.2
	c1.1,141.3,116.5,255,257.9,254c67.2-0.5,131.5-27.4,179-74.9C537,337,537,175,437,74.9C437,75,437,75,437,74.9z M426,404.9
	l-17.3-16.6c-6-5.7-15.5-5.6-21.2,0.4c-5.7,6-5.6,15.5,0.4,21.2l16.9,16.2c-37.2,32.7-84.2,52.1-133.6,55.3v-54.1
	c0-8.3-6.7-15-15-15s-15,6.7-15,15v54.1c-43.7-2.8-85.7-18.3-120.7-44.7l15.8-16.4c5.7-6,5.6-15.5-0.4-21.2
	c-6-5.7-15.5-5.6-21.2,0.4L97.7,417c-0.4-0.4-0.9-0.9-1.3-1.3C57.5,377,34.1,325.5,30.6,270.8h54c8.3,0,15-6.7,15-15s-6.7-15-15-15
	h-54c3-46.5,20.4-90.9,49.8-127l17.4,16.7c6,5.7,15.5,5.6,21.2-0.4c5.7-6,5.6-15.5-0.4-21.2l0,0l-17.8-17.2
	c38.1-36.2,87.7-57.9,140.2-61.2v54.1c0,8.3,6.7,15,15,15s15-6.7,15-15V30.5c52.4,3.3,101.9,25,140,61.1l-17.1,17.8
	c-5.7,6-5.6,15.5,0.4,21.2c6,5.7,15.5,5.6,21.2-0.4l16-16.6c29.5,36.2,47,80.6,49.9,127.2h-54.2c-8.3,0-15,6.7-15,15s6.7,15,15,15
	l0,0h54.2C478.4,320.4,458.8,367.6,426,404.9z"/>
<path class="st0" d="M351.5,313.8l-80.4-65.1V139c0-8.3-6.7-15-15-15s-15,6.7-15,15v116.9c0,5.1,2.6,9.9,6.9,12.6l84.6,68.6
	c6.4,5.2,15.9,4.2,21.1-2.2C358.9,328.5,357.9,319,351.5,313.8L351.5,313.8z"/>
</svg>
