<?xml version="1.0" encoding="utf-8"?>
<!-- Generator: Adobe Illustrator 26.0.1, SVG Export Plug-In . SVG Version: 6.00 Build 0)  -->
<svg version="1.1" id="Layer_1" xmlns="http://www.w3.org/2000/svg" xmlns:xlink="http://www.w3.org/1999/xlink" x="0px" y="0px"
	 viewBox="0 0 512 512" style="enable-background:new 0 0 512 512;" xml:space="preserve">
<style type="text/css">
	.st0{fill:#0A4737;}
</style>
<path class="st0" d="M368,512c-16.7,0-33.3-3-49-8.7c-71.2-26-135.9-67.2-189.5-120.8C76,328.8,34.8,264.2,8.7,193
	c-8.2-22.2-10.7-46.2-7.2-69.6C8.3,78.2,35.9,38.8,76.2,17c21-11.3,44.4-17.2,68.3-17c7.5,0,14.1,5.3,15.6,12.6l25.1,117.2
	c1.1,5.3-0.5,10.8-4.3,14.7l-42.9,42.9c40.6,80.6,106,146,186.6,186.7l42.9-42.9c3.8-3.8,9.4-5.5,14.7-4.3l117.2,25.1
	c7.4,1.6,12.6,8.1,12.6,15.6c0.1,23.8-5.8,47.3-17,68.3c-21.7,40.2-61.1,67.9-106.3,74.6C381.8,511.5,374.9,512,368,512z
	 M131.6,32.7c-61.5,7-105.7,62.6-98.7,124.1c1,8.6,3,17.1,5.9,25.2c49,135.5,155.7,242.2,291.2,291.2
	c58.3,20.9,122.5-9.3,143.4-67.6c2.9-8.1,4.9-16.6,5.9-25.2L384,359.9l-44.8,44.8c-4.8,4.8-12.1,6.1-18.2,3.2
	c-95.4-44.9-172.1-121.6-217-217c-2.9-6.1-1.6-13.4,3.2-18.1l44.9-44.8L131.6,32.7z"/>
</svg>
